<svg width="20" height="20" viewBox="0 0 48 48" xmlns="http://www.w3.org/2000/svg">
  <path fill="#1877F2" d="M48 24C48 10.75 37.25 0 24 0S0 10.75 0 24c0 11.97 8.76 21.88 20.25 23.72V30.94h-6.1V24h6.1v-5.3c0-6.02 3.59-9.35 9.09-9.35 2.63 0 5.39.47 5.39.47v5.92h-3.04c-3 0-3.94 1.86-3.94 3.77V24h6.71l-1.07 6.94h-5.64v16.78C39.24 45.88 48 35.97 48 24z"/>
  <path fill="#fff" d="M33.64 30.94 34.71 24h-6.71v-4.49c0-1.91.94-3.77 3.94-3.77h3.04V9.82s-2.76-.47-5.39-.47c-5.5 0-9.09 3.33-9.09 9.35V24h-6.1v6.94h6.1v16.78c1.22.19 2.47.28 3.72.28s2.5-.09 3.72-.28V30.94h5.65z"/>
</svg>

