<svg width="20" height="20" viewBox="0 0 48 48" xmlns="http://www.w3.org/2000/svg">
  <path fill="#EA4335" d="M24 9.5c3.26 0 6.2 1.12 8.51 3.32l6.35-6.35C34.56 2.5 29.74.5 24 .5 14.68.5 6.77 5.83 3.01 13.2l7.77 6.04C12.65 13.53 17.81 9.5 24 9.5z"/>
  <path fill="#4285F4" d="M46.5 24c0-1.51-.14-2.97-.4-4.39H24v8.54h12.74c-.55 2.97-2.17 5.49-4.68 7.18l7.26 5.64C43.48 37.39 46.5 31.21 46.5 24z"/>
  <path fill="#FBBC04" d="M10.78 19.24a14.49 14.49 0 0 0 0 9.52l-7.77 6.04C.9 31.29 0 27.75 0 24s.9-7.29 3.01-10.8l7.77 6.04z"/>
  <path fill="#34A853" d="M24 47.5c6.5 0 11.97-2.14 15.96-6.31l-7.26-5.64c-2.02 1.35-4.6 2.14-7.7 2.14-6.19 0-11.35-4.03-13.22-9.74l-7.77 6.04C6.77 42.17 14.68 47.5 24 47.5z"/>
</svg>

